<?xml version="1.0" encoding="UTF-8" standalone="no"?>
<svg width="200px" height="40px" viewBox="0 0 200 40" version="1.1" xmlns="http://www.w3.org/2000/svg" xmlns:xlink="http://www.w3.org/1999/xlink">
    <!-- Generator: Sketch 39.1 (31720) - http://www.bohemiancoding.com/sketch -->
    <title>Icons</title>
    <desc>Created with Sketch.</desc>
    <defs></defs>
    <g id="Element" stroke="none" stroke-width="1" fill="none" fill-rule="evenodd">
        <g id="Icons">
            <g id="Mode">
                <text id="✕" font-family="ZapfDingbatsITC, Zapf Dingbats" font-size="13" font-weight="normal" fill="#A8A8A8">
                    <tspan x="15.0456543" y="25">✕</tspan>
                </text>
                <path d="M98.3551469,26 C98.4457976,26 98.5364482,25.9497112 98.6057971,25.8459904 L102.317029,20.3686975 C102.455727,20.1640499 102.455727,19.8326325 102.317029,19.6279848 L98.6067439,14.1534857 C98.468046,13.9488381 98.2434313,13.9488381 98.1047334,14.1534857 C97.9660356,14.3581334 97.9660356,14.6899 98.1047334,14.8941984 L101.564369,19.9992142 L98.1047334,25.1038808 C97.9650889,25.3099254 97.9650889,25.6399459 98.1047334,25.8459904 C98.1740823,25.9483142 98.264733,26 98.3551469,26 Z" id="Page-1" fill="#A8A8A8" transform="translate(100.210526, 20.000000) rotate(-180.000000) translate(-100.210526, -20.000000) "></path>
                <path d="M138.355147,26 C138.445798,26 138.536448,25.9497112 138.605797,25.8459904 L142.317029,20.3686975 C142.455727,20.1640499 142.455727,19.8326325 142.317029,19.6279848 L138.606744,14.1534857 C138.468046,13.9488381 138.243431,13.9488381 138.104733,14.1534857 C137.966036,14.3581334 137.966036,14.6899 138.104733,14.8941984 L141.564369,19.9992142 L138.104733,25.1038808 C137.965089,25.3099254 137.965089,25.6399459 138.104733,25.8459904 C138.174082,25.9483142 138.264733,26 138.355147,26 Z" id="Page-1" fill="#A8A8A8"></path>
                <g id="First" transform="translate(179.785714, 20.000000) rotate(-180.000000) translate(-179.785714, -20.000000) translate(175.285714, 14.000000)">
                    <path d="M0.4,-1.77635684e-15 L0.4,12" id="Line" stroke="#A8A8A8" stroke-width="0.8" stroke-linecap="square"></path>
                    <path d="M7.9149565,-3.55271368e-15 C7.82032123,-3.55271368e-15 7.72568595,0.0502888407 7.65328873,0.154009575 L3.7789255,5.63130248 C3.63413106,5.83595012 3.63413106,6.16736755 3.7789255,6.37201519 L7.65230037,11.8465143 C7.79709482,12.0511619 8.03158274,12.0511619 8.17637719,11.8465143 C8.32117163,11.6418666 8.32117163,11.3101 8.17637719,11.1058016 L4.56467009,6.00078576 L8.17637719,0.896119203 C8.32215999,0.690074647 8.32215999,0.36005413 8.17637719,0.154009575 C8.10397996,0.051685753 8.00934469,-3.55271368e-15 7.9149565,-3.55271368e-15" id="Page-1" fill="#A8A8A8"></path>
                </g>
                <g id="First" transform="translate(59.785714, 20.000000) rotate(-360.000000) translate(-59.785714, -20.000000) translate(55.285714, 14.000000)">
                    <path d="M0.4,-1.77635684e-15 L0.4,12" id="Line" stroke="#A8A8A8" stroke-width="0.8" stroke-linecap="square"></path>
                    <path d="M7.9149565,0 C7.82032123,0 7.72568595,0.0502888407 7.65328873,0.154009575 L3.7789255,5.63130248 C3.63413106,5.83595012 3.63413106,6.16736755 3.7789255,6.37201519 L7.65230037,11.8465143 C7.79709482,12.0511619 8.03158274,12.0511619 8.17637719,11.8465143 C8.32117163,11.6418666 8.32117163,11.3101 8.17637719,11.1058016 L4.56467009,6.00078576 L8.17637719,0.896119203 C8.32215999,0.690074647 8.32215999,0.36005413 8.17637719,0.154009575 C8.10397996,0.051685753 8.00934469,0 7.9149565,0" id="Page-1" fill="#A8A8A8"></path>
                </g>
            </g>
        </g>
    </g>
</svg>